<svg width="25" height="24" viewBox="0 0 25 24" fill="none" xmlns="http://www.w3.org/2000/svg">
    <path fill-rule="evenodd" clip-rule="evenodd" d="M6.65017 5.56401C8.80466 4.44601 11.5584 3.55401 13.9604 3.19401C16.0488 2.88101 18.2624 4.00601 19.2364 5.87601C20.3567 8.02601 21.2506 10.774 21.6113 13.172C21.925 15.255 20.7976 17.464 18.9237 18.436C16.7693 19.554 14.0155 20.446 11.6135 20.806C9.52516 21.119 7.31155 19.994 6.33752 18.124C5.21719 15.974 4.32332 13.226 3.96257 10.829C3.64892 8.74501 4.77627 6.53601 6.65017 5.56401V5.56401ZM13.6638 1.21601C11.0423 1.60801 8.07714 2.57001 5.72524 3.78901C3.09176 5.15501 1.53952 8.19601 1.98044 11.125C2.37326 13.741 3.33627 16.7 4.55881 19.047C5.92767 21.675 8.97501 23.224 11.9101 22.785C14.5316 22.392 17.4968 21.43 19.8487 20.211C22.4822 18.845 24.0344 15.804 23.5945 12.875C23.2006 10.259 22.2366 7.30001 21.0151 4.95301C19.6462 2.32501 16.5989 0.776006 13.6638 1.21601V1.21601ZM9.65443 7.23301C9.61485 7.10681 9.55059 6.98969 9.46535 6.88844C9.38011 6.78719 9.2756 6.70382 9.15786 6.64315C9.04012 6.58247 8.91149 6.54571 8.77941 6.53497C8.64734 6.52424 8.51444 6.53976 8.38842 6.58062C8.26239 6.62148 8.14574 6.68688 8.04521 6.77304C7.94468 6.85919 7.86227 6.96438 7.80276 7.08253C7.74324 7.20068 7.70779 7.32943 7.69847 7.46134C7.68915 7.59325 7.70614 7.72569 7.74846 7.85101L8.36775 9.75301L6.46178 10.371C6.21171 10.4551 6.00497 10.6342 5.88645 10.8695C5.76793 11.1048 5.74719 11.3772 5.82874 11.6277C5.91028 11.8781 6.08753 12.0864 6.322 12.2072C6.55647 12.328 6.82923 12.3517 7.08107 12.273L8.98704 11.655L9.91597 14.508L8.01 15.126C7.75994 15.2101 7.5532 15.3892 7.43468 15.6245C7.31615 15.8598 7.29542 16.1322 7.37696 16.3827C7.45851 16.6331 7.63575 16.8414 7.87022 16.9622C8.10469 17.083 8.37745 17.1067 8.62929 17.028L10.5353 16.41L11.1546 18.312C11.2388 18.5616 11.4183 18.7679 11.6541 18.8861C11.8899 19.0044 12.1629 19.0251 12.4138 18.9437C12.6648 18.8624 12.8735 18.6855 12.9946 18.4515C13.1156 18.2175 13.1393 17.9453 13.0605 17.694L12.4412 15.792L15.3002 14.865L15.9195 16.767C16.0037 17.0166 16.1833 17.2229 16.419 17.3411C16.6548 17.4594 16.9278 17.4801 17.1788 17.3987C17.4297 17.3174 17.6384 17.1405 17.7595 16.9065C17.8806 16.6725 17.9043 16.4003 17.8255 16.149L17.2062 14.247L19.1121 13.629C19.2386 13.5895 19.356 13.5254 19.4574 13.4403C19.5589 13.3553 19.6424 13.251 19.7032 13.1335C19.764 13.016 19.8009 12.8876 19.8116 12.7558C19.8224 12.624 19.8068 12.4914 19.7659 12.3656C19.7249 12.2399 19.6594 12.1235 19.5731 12.0231C19.4867 11.9228 19.3813 11.8406 19.2629 11.7812C19.1445 11.7218 19.0155 11.6864 18.8833 11.6771C18.7511 11.6678 18.6184 11.6848 18.4928 11.727L16.5869 12.345L15.6579 9.49201L17.5639 8.87401C17.814 8.78991 18.0207 8.61078 18.1392 8.37551C18.2578 8.14023 18.2785 7.86779 18.197 7.61734C18.1154 7.3669 17.9382 7.15866 17.7037 7.03783C17.4692 6.91701 17.1965 6.89336 16.9446 6.97201L15.0386 7.59001L14.4194 5.68801C14.3798 5.56181 14.3155 5.44469 14.2303 5.34344C14.145 5.24219 14.0405 5.15882 13.9228 5.09815C13.805 5.03747 13.6764 5.00071 13.5443 4.98997C13.4123 4.97924 13.2794 4.99476 13.1533 5.03562C13.0273 5.07648 12.9107 5.14188 12.8101 5.22804C12.7096 5.31419 12.6272 5.41938 12.5677 5.53753C12.5082 5.65568 12.4727 5.78443 12.4634 5.91634C12.4541 6.04825 12.4711 6.18069 12.5134 6.30601L13.1327 8.20801L10.2737 9.13501L9.65443 7.23301V7.23301ZM11.8219 13.89L10.893 11.037L13.752 10.11L14.6809 12.963L11.8219 13.89Z" fill="#DE1D64" />
</svg>
