<svg width="25" height="24" viewBox="0 0 25 24" fill="none" xmlns="http://www.w3.org/2000/svg">
    <path fill-rule="evenodd" clip-rule="evenodd" d="M15.5291 5.65799C15.0713 5.6578 14.6192 5.75904 14.2053 5.95441C13.7915 6.14977 13.4263 6.43439 13.1361 6.78771C12.8459 7.14103 12.6379 7.55424 12.5272 7.99752C12.4165 8.44079 12.4057 8.90307 12.4958 9.35099C12.5268 9.50619 12.5204 9.66651 12.4772 9.81879C12.4341 9.97106 12.3553 10.1109 12.2474 10.2269C12.1395 10.3429 12.0055 10.4316 11.8566 10.4859C11.7076 10.5401 11.5479 10.5583 11.3905 10.539C9.23571 10.2749 7.20447 9.39094 5.54429 7.99499C5.57535 8.59699 5.78479 9.23699 6.23873 9.90699L6.91915 10.911L5.80182 11.386L5.58637 11.478C5.74671 11.661 5.93911 11.848 6.15456 12.033C6.44257 12.279 6.74726 12.5049 7.06646 12.709L7.07748 12.716H7.07848L8.62971 13.655L7.00633 14.465C6.92616 14.505 6.846 14.541 6.76583 14.573C7.1149 14.8624 7.49944 15.1064 7.91021 15.299L9.30312 15.956L8.13669 16.96C7.50036 17.508 6.86003 17.917 6.0293 18.133C7.30339 18.8102 8.72536 19.163 10.1689 19.16C14.985 19.16 18.863 15.325 18.863 10.626V10.106L19.2889 9.80699C19.9543 9.34099 20.4243 8.71099 20.761 7.98999H18.5965L18.3239 7.41999C18.0729 6.89266 17.6772 6.44719 17.1827 6.1353C16.6881 5.82341 16.1151 5.65791 15.5301 5.65799H15.5291ZM4.22554 12.958C4.13098 13.0661 4.06082 13.1932 4.01985 13.3307C3.97887 13.4682 3.96802 13.6129 3.98804 13.755C4.10128 14.556 4.58128 15.246 5.11239 15.773C5.25669 15.916 5.41101 16.053 5.57335 16.184L5.49819 16.204C5.01619 16.324 4.36583 16.349 3.28257 16.244C3.07801 16.224 2.87221 16.2672 2.6931 16.3678C2.51399 16.4684 2.37021 16.6216 2.28128 16.8065C2.19234 16.9915 2.16254 17.1992 2.19592 17.4016C2.2293 17.604 2.32424 17.7913 2.46788 17.938C3.47074 18.9609 4.66875 19.773 5.99124 20.3264C7.31372 20.8798 8.73388 21.1632 10.1679 21.16C15.8928 21.16 20.5886 16.724 20.8542 11.126C22.1469 10.043 22.7932 8.57599 23.1419 7.24299C23.1807 7.09504 23.185 6.94019 23.1544 6.79034C23.1238 6.6405 23.0592 6.49965 22.9655 6.37863C22.8718 6.25762 22.7515 6.15965 22.614 6.09228C22.4764 6.0249 22.3252 5.98991 22.1719 5.98999H19.814C19.2373 5.09631 18.3944 4.40543 17.4039 4.01442C16.4134 3.62342 15.325 3.55194 14.2917 3.81004C13.2583 4.06813 12.332 4.64283 11.6429 5.45337C10.9537 6.26391 10.5364 7.26956 10.4495 8.32899C8.60231 7.84914 6.94955 6.8098 5.71865 5.35399C5.60964 5.22537 5.46984 5.12632 5.31222 5.06602C5.1546 5.00572 4.98427 4.98614 4.81704 5.00908C4.64981 5.03202 4.4911 5.09675 4.35563 5.19726C4.22017 5.29776 4.11234 5.43079 4.04216 5.58399C3.43489 6.90599 3.31865 8.42999 3.99606 9.97999L3.76157 10.08C3.53718 10.1754 3.35536 10.3492 3.25021 10.5688C3.14506 10.7885 3.12378 11.0388 3.19038 11.273C3.37677 11.925 3.79564 12.501 4.22454 12.958H4.22554Z" fill="#2AA3EF" />
</svg>
