<svg width="25" height="24" viewBox="0 0 25 24" fill="none" xmlns="http://www.w3.org/2000/svg">
    <path fill-rule="evenodd" clip-rule="evenodd" d="M4.04397 12C4.04397 10.3189 4.54352 8.67547 5.47947 7.27765C6.41541 5.87984 7.7457 4.79037 9.30211 4.14702C10.8585 3.50368 12.5712 3.33535 14.2234 3.66333C15.8757 3.9913 17.3934 4.80085 18.5847 5.98959C19.7759 7.17834 20.5871 8.69289 20.9158 10.3417C21.2445 11.9906 21.0758 13.6996 20.4311 15.2528C19.7864 16.806 18.6947 18.1335 17.2939 19.0675C15.8932 20.0015 14.2464 20.5 12.5617 20.5C10.9502 20.5029 9.37129 20.047 8.01023 19.186C7.88916 19.1096 7.75308 19.0599 7.61116 19.0404C7.46923 19.021 7.32477 19.0321 7.18752 19.073L4.3015 19.932L5.38877 17.395C5.45197 17.2473 5.47859 17.0866 5.46638 16.9264C5.45417 16.7663 5.40349 16.6115 5.31862 16.475C4.48281 15.1316 4.04121 13.5813 4.04397 12V12ZM12.5617 1.5C6.75061 1.5 2.03979 6.201 2.03979 12C2.03979 13.838 2.51378 15.568 3.34752 17.073L1.61892 21.107C1.5441 21.2817 1.52072 21.4741 1.55153 21.6617C1.58234 21.8492 1.66604 22.0241 1.79285 22.1658C1.91966 22.3076 2.08433 22.4104 2.26755 22.4621C2.45078 22.5139 2.64499 22.5124 2.82743 22.458L7.33683 21.116C8.92717 22.0255 10.7288 22.5027 12.5617 22.5C18.3728 22.5 23.0836 17.799 23.0836 12C23.0836 6.201 18.3728 1.5 12.5617 1.5ZM14.8595 14.182L13.5418 15.108C12.8157 14.6912 12.149 14.1789 11.5596 13.585C10.9268 12.9544 10.3797 12.2437 9.93223 11.471L10.769 10.762C10.9433 10.6144 11.0619 10.4117 11.1049 10.1876C11.1479 9.96351 11.1128 9.73147 11.0055 9.53L9.93925 7.53C9.8683 7.39718 9.76821 7.28205 9.64646 7.1932C9.52471 7.10436 9.38442 7.04408 9.23608 7.01688C9.08773 6.98967 8.93514 6.99624 8.78969 7.03608C8.64423 7.07593 8.50967 7.14803 8.39603 7.247L8.07937 7.522C7.31879 8.184 6.86885 9.272 7.24163 10.374C7.84138 12.1171 8.83385 13.6997 10.1427 15C11.9595 16.813 13.8053 17.527 14.8856 17.805C15.7554 18.028 16.5781 17.729 17.1583 17.257L17.7505 16.775C17.8754 16.6734 17.9739 16.5432 18.0376 16.3956C18.1013 16.2479 18.1284 16.0871 18.1166 15.9268C18.1048 15.7664 18.0545 15.6113 17.9698 15.4745C17.8851 15.3377 17.7687 15.2233 17.6303 15.141L15.9488 14.141C15.7825 14.042 15.591 13.9932 15.3976 14.0004C15.2041 14.0077 15.0168 14.0708 14.8585 14.182H14.8595Z" fill="#25D366" />
</svg>
