<svg width="24" height="24" viewBox="0 0 24 24" fill="none" xmlns="http://www.w3.org/2000/svg">
<path fill-rule="evenodd" clip-rule="evenodd" d="M11.9999 3C11.2043 3 10.4412 3.31607 9.87858 3.87868C9.31598 4.44129 8.99991 5.20435 8.99991 6H14.9999C14.9999 5.20435 14.6838 4.44129 14.1212 3.87868C13.5586 3.31607 12.7956 3 11.9999 3ZM16.9999 6C16.9999 4.67392 16.4731 3.40215 15.5354 2.46447C14.5978 1.52678 13.326 1 11.9999 1C10.6738 1 9.40205 1.52678 8.46437 2.46447C7.52669 3.40215 6.99991 4.67392 6.99991 6H5.10491C4.82549 6.00001 4.54917 6.05857 4.29377 6.17191C4.03836 6.28524 3.80954 6.45083 3.62205 6.65801C3.43456 6.86519 3.29257 7.10936 3.20522 7.37478C3.11787 7.64019 3.0871 7.92097 3.11491 8.199L3.98991 16.951L3.25891 20.608C3.20093 20.898 3.20801 21.1973 3.27964 21.4843C3.35127 21.7713 3.48565 22.0388 3.67312 22.2676C3.86059 22.4964 4.09647 22.6807 4.36377 22.8074C4.63106 22.934 4.92312 22.9998 5.21891 23H18.7799C19.0758 23 19.3679 22.9343 19.6354 22.8077C19.9028 22.6811 20.1388 22.4968 20.3264 22.268C20.514 22.0392 20.6484 21.7716 20.7201 21.4846C20.7918 21.1975 20.7989 20.8981 20.7409 20.608L20.0099 16.951L20.8849 8.199C20.9127 7.92097 20.8819 7.64019 20.7946 7.37478C20.7072 7.10936 20.5652 6.86519 20.3778 6.65801C20.1903 6.45083 19.9614 6.28524 19.706 6.17191C19.4506 6.05857 19.1743 6.00001 18.8949 6H16.9999ZM7.99991 8H5.10491L5.99491 16.9L6.00991 17.05L5.97991 17.196L5.21991 21H18.7799L18.0199 17.196L17.9899 17.049L18.0049 16.901L18.8949 8L19.8899 8.1L18.8949 8H7.99991V8ZM6.99991 17C6.99991 16.7348 7.10526 16.4804 7.2928 16.2929C7.48034 16.1054 7.73469 16 7.99991 16H15.9999C16.2651 16 16.5195 16.1054 16.707 16.2929C16.8945 16.4804 16.9999 16.7348 16.9999 17C16.9999 17.2652 16.8945 17.5196 16.707 17.7071C16.5195 17.8946 16.2651 18 15.9999 18H7.99991C7.73469 18 7.48034 17.8946 7.2928 17.7071C7.10526 17.5196 6.99991 17.2652 6.99991 17Z" fill="#41CFFA"/>
</svg>
