<svg width="25" height="24" viewBox="0 0 25 24" fill="none" xmlns="http://www.w3.org/2000/svg">
    <path fill-rule="evenodd" clip-rule="evenodd" d="M2.42798 6C2.42798 4.93913 2.85029 3.92172 3.602 3.17157C4.35371 2.42143 5.37325 2 6.43633 2H18.4614C19.5245 2 20.544 2.42143 21.2957 3.17157C22.0474 3.92172 22.4697 4.93913 22.4697 6V18C22.4697 19.0609 22.0474 20.0783 21.2957 20.8284C20.544 21.5786 19.5245 22 18.4614 22H6.43633C5.37325 22 4.35371 21.5786 3.602 20.8284C2.85029 20.0783 2.42798 19.0609 2.42798 18V6ZM6.43633 4C5.90479 4 5.39502 4.21071 5.01916 4.58579C4.64331 4.96086 4.43215 5.46957 4.43215 6V18C4.43215 18.5304 4.64331 19.0391 5.01916 19.4142C5.39502 19.7893 5.90479 20 6.43633 20H18.4614C18.9929 20 19.5027 19.7893 19.8785 19.4142C20.2544 19.0391 20.4656 18.5304 20.4656 18V6C20.4656 5.46957 20.2544 4.96086 19.8785 4.58579C19.5027 4.21071 18.9929 4 18.4614 4H6.43633ZM12.4489 9C11.6515 9 10.8869 9.31607 10.3231 9.87868C9.75932 10.4413 9.44259 11.2044 9.44259 12C9.44259 12.7956 9.75932 13.5587 10.3231 14.1213C10.8869 14.6839 11.6515 15 12.4489 15C13.2462 15 14.0108 14.6839 14.5746 14.1213C15.1384 13.5587 15.4551 12.7956 15.4551 12C15.4551 11.2044 15.1384 10.4413 14.5746 9.87868C14.0108 9.31607 13.2462 9 12.4489 9ZM7.43842 12C7.43842 10.6739 7.9663 9.40215 8.90594 8.46447C9.84558 7.52678 11.12 7 12.4489 7C13.7777 7 15.0521 7.52678 15.9918 8.46447C16.9314 9.40215 17.4593 10.6739 17.4593 12C17.4593 13.3261 16.9314 14.5979 15.9918 15.5355C15.0521 16.4732 13.7777 17 12.4489 17C11.12 17 9.84558 16.4732 8.90594 15.5355C7.9663 14.5979 7.43842 13.3261 7.43842 12V12ZM17.9603 8C18.359 8 18.7413 7.84196 19.0232 7.56066C19.3051 7.27936 19.4635 6.89782 19.4635 6.5C19.4635 6.10218 19.3051 5.72064 19.0232 5.43934C18.7413 5.15804 18.359 5 17.9603 5C17.5617 5 17.1794 5.15804 16.8975 5.43934C16.6156 5.72064 16.4572 6.10218 16.4572 6.5C16.4572 6.89782 16.6156 7.27936 16.8975 7.56066C17.1794 7.84196 17.5617 8 17.9603 8Z" fill="#713DBB" />
</svg>
